<svg xmlns="http://www.w3.org/2000/svg" width="48" height="48" viewBox="0 0 48 48"><path fill="#35383b" d="M24 7c0 0-1.325 1.32-2.729 3.059l4.543 6.36-1.627 1.162-4.179-5.851C18.903 13.309 18 14.989 18 16.273c0 3.313 2.687 6 6 6 3.313 0 6-2.688 6-6C30 12.96 24 7 24 7zM21 23c0 10-3 13-3 13h12c0 0-3-3-3-13M35 44H13v-2c0-2.209 1.791-4 4-4h14c2.209 0 4 1.791 4 4V44z"></path><g><path fill="#FFCA28" d="M29 22c0 .553-.447 1-1 1h-8c-.553 0-1-.447-1-1l0 0c0-.553.447-1 1-1h8C28.553 21 29 21.447 29 22L29 22zM32 37c0 .553-.447 1-1 1H17c-.553 0-1-.447-1-1l0 0c0-.553.447-1 1-1h14C31.553 36 32 36.447 32 37L32 37zM24 4A2 2 0 1 0 24 8 2 2 0 1 0 24 4z"></path></g></svg>