<svg xmlns="http://www.w3.org/2000/svg" width="48" height="48" viewBox="0 0 48 48"><path fill="#35383b" d="M21 23c0 10-3 13-3 13h12c0 0-3-3-3-13M35 44H13v-2c0-2.209 1.791-4 4-4h14c2.209 0 4 1.791 4 4V44zM27 21c0 .553-6 .553-6 0l-3-10c0-.553.447-1 1-1h10c.553 0 1 .447 1 1L27 21z"></path><g><path fill="#FFCA28" d="M27 8c0 .553-.447 1-1 1h-4c-.553 0-1-.447-1-1V7c0-.553.447-1 1-1h4c.553 0 1 .447 1 1V8zM32 37c0 .553-.447 1-1 1H17c-.553 0-1-.447-1-1l0 0c0-.553.447-1 1-1h14C31.553 36 32 36.447 32 37L32 37zM29 22c0 .553-.447 1-1 1h-8c-.553 0-1-.447-1-1l0 0c0-.553.447-1 1-1h8C28.553 21 29 21.447 29 22L29 22z"></path><path fill="#FFCA28" d="M25,10V5c0-0.553-0.447-1-1-1c-0.553,0-1,0.447-1,1v5H25z"></path></g></svg>