<svg xmlns="http://www.w3.org/2000/svg" width="48" height="48" viewBox="0 0 48 48"><path fill="#FFCA28" d="M32 34c0 .553-.447 1-1 1H17c-.553 0-1-.447-1-1l0 0c0-.553.447-1 1-1h14C31.553 33 32 33.447 32 34L32 34zM29 17c0 .553-.447 1-1 1h-8c-.553 0-1-.447-1-1l0 0c0-.553.447-1 1-1h8C28.553 16 29 16.447 29 17L29 17z"></path><g><path fill="#35383b" d="M21 18c0 10-3 15-3 15h12c0 0-3-5-3-15M35 41H13v-2c0-2.209 1.791-4 4-4h14c2.209 0 4 1.791 4 4V41zM29 7v4c0 .553-.447 1-1 1h-1c-.553 0-1-.447-1-1V7h-4v4c0 .553-.447 1-1 1h-1c-.553 0-1-.447-1-1V7h-3v8c0 .553.447 1 1 1h14c.553 0 1-.447 1-1V7H29z"></path></g></svg>