<svg xmlns="http://www.w3.org/2000/svg" width="48" height="48" viewBox="0 0 48 48"><path fill="#edd1b7" d="M21 19c0 10-5 12-5 12h16c0 0-5-2-5-12M37 40H11v-3c0-2.209 1.791-4 4-4h18c2.209 0 4 1.791 4 4V40zM24 8A5 5 0 1 0 24 18 5 5 0 1 0 24 8z"></path><g><path fill="#FFCA28" d="M34 32c0 .553-.447 1-1 1H15c-.553 0-1-.447-1-1l0 0c0-.553.447-1 1-1h18C33.553 31 34 31.447 34 32L34 32zM29 18c0 .553-.447 1-1 1h-8c-.553 0-1-.447-1-1l0 0c0-.553.447-1 1-1h8C28.553 17 29 17.447 29 18L29 18z"></path></g></svg>