<svg xmlns="http://www.w3.org/2000/svg" width="48" height="48" viewBox="0 0 48 48"><path fill="#edd1b7" d="M24,8c-2.762,0-5,2.238-5,5h10C29,10.238,26.762,8,24,8z"></path><path fill="#ede5d5" d="M21 23c0 10-3 13-3 13h12c0 0-3-3-3-13M35 44H13v-2c0-2.209 1.791-4 4-4h14c2.209 0 4 1.791 4 4V44zM27 21c0 .553-6 .553-6 0l-4-11c0 0 2.501 2 3.501 2S24 10 24 10s2.334 2 3.334 2S31 10 31 10L27 21z"></path><g><path fill="#FFCA28" d="M24 4A2 2 0 1 0 24 8 2 2 0 1 0 24 4zM32 37c0 .553-.447 1-1 1H17c-.553 0-1-.447-1-1l0 0c0-.553.447-1 1-1h14C31.553 36 32 36.447 32 37L32 37zM29 22c0 .553-.447 1-1 1h-8c-.553 0-1-.447-1-1l0 0c0-.553.447-1 1-1h8C28.553 21 29 21.447 29 22L29 22z"></path></g></svg>