<svg xmlns="http://www.w3.org/2000/svg" x="0px" y="0px"
width="35" height="35"
viewBox="0 0 226 226"
style=" fill:#000000;"><g fill="none" fill-rule="nonzero" stroke="none" stroke-width="1" stroke-linecap="butt" stroke-linejoin="miter" stroke-miterlimit="10" stroke-dasharray="" stroke-dashoffset="0" font-family="none" font-weight="none" font-size="none" text-anchor="none" style="mix-blend-mode: normal"><path d="M0,226v-226h226v226z" fill="none"></path><g id="original-icon" fill="#007bff"><path d="M203.4,135.6v15.06667c0,2.90787 -1.67993,5.5596 -4.30907,6.81013c-2.62913,1.25053 -5.7404,0.86633 -8.0004,-0.97933l-78.09053,-63.89773l-78.09807,63.89773c-2.25247,1.84567 -5.36373,2.22233 -8.0004,0.97933c-2.63667,-1.243 -4.30153,-3.90227 -4.30153,-6.81013v-15.06667c0,-2.26 1.017,-4.39947 2.76473,-5.8308l82.86667,-67.8c2.7798,-2.26753 6.76493,-2.26753 9.54473,0l82.86667,67.8c1.7402,1.43133 2.7572,3.5708 2.7572,5.8308z"></path></g></g></svg>