<svg xmlns="http://www.w3.org/2000/svg" viewBox="0 0 48 48"><path fill="#ffb300" d="M41.5,23c-1.299,0-2.461-0.559-3.282-1.439C36.868,22.466,35.248,23,33.5,23 c-4.694,0-8.5-3.806-8.5-8.5c0-1.748,0.529-3.372,1.434-4.723C25.556,8.956,25,7.797,25,6.5c0-0.89,0.267-1.715,0.713-2.414 C25.147,4.038,24.578,4,24,4C12.954,4,4,12.954,4,24c0,11.046,8.954,20,20,20s20-8.954,20-20c0-0.579-0.033-1.149-0.082-1.716 C43.219,22.732,42.392,23,41.5,23z"></path><path fill="#ffb300" d="M34.5 11A1.5 1.5 0 1 0 34.5 14 1.5 1.5 0 1 0 34.5 11zM42.5 14A1.5 1.5 0 1 0 42.5 17 1.5 1.5 0 1 0 42.5 14zM36 4A2 2 0 1 0 36 8 2 2 0 1 0 36 4z"></path><path fill="#683529" d="M13 19A3 3 0 1 0 13 25 3 3 0 1 0 13 19zM28 32A3 3 0 1 0 28 38 3 3 0 1 0 28 32zM16.5 31A2.5 2.5 0 1 0 16.5 36 2.5 2.5 0 1 0 16.5 31zM22.5 23A1.5 1.5 0 1 0 22.5 26 1.5 1.5 0 1 0 22.5 23zM34.5 26A1.5 1.5 0 1 0 34.5 29 1.5 1.5 0 1 0 34.5 26zM18.5 12A1.5 1.5 0 1 0 18.5 15 1.5 1.5 0 1 0 18.5 12z"></path></svg>