<svg xmlns="http://www.w3.org/2000/svg" viewBox="0 0 30 30"><path d="M 4.9902344 3.9902344 A 1.0001 1.0001 0 0 0 4 5.1289062 L 4 11 A 1.0001 1.0001 0 1 0 6 11 L 6 7.4140625 L 10.792969 12.207031 A 1.0001 1.0001 0 1 0 12.207031 10.792969 L 7.4140625 6 L 11 6 A 1.0001 1.0001 0 1 0 11 4 L 5.1171875 4 A 1.0001 1.0001 0 0 0 4.9902344 3.9902344 z M 24.980469 3.9902344 A 1.0001 1.0001 0 0 0 24.869141 4 L 19 4 A 1.0001 1.0001 0 1 0 19 6 L 22.585938 6 L 17.792969 10.792969 A 1.0001 1.0001 0 1 0 19.207031 12.207031 L 24 7.4140625 L 24 11 A 1.0001 1.0001 0 1 0 26 11 L 26 5.1269531 A 1.0001 1.0001 0 0 0 24.980469 3.9902344 z M 11.480469 17.490234 A 1.0001 1.0001 0 0 0 10.792969 17.792969 L 6 22.585938 L 6 19 A 1.0001 1.0001 0 0 0 4.984375 17.986328 A 1.0001 1.0001 0 0 0 4 19 L 4 24.847656 A 1.0001 1.0001 0 0 0 5.1523438 26 L 11 26 A 1.0001 1.0001 0 1 0 11 24 L 7.4140625 24 L 12.207031 19.207031 A 1.0001 1.0001 0 0 0 11.480469 17.490234 z M 18.490234 17.490234 A 1.0001 1.0001 0 0 0 17.792969 19.207031 L 22.585938 24 L 19 24 A 1.0001 1.0001 0 1 0 19 26 L 24.847656 26 A 1.0001 1.0001 0 0 0 26 24.847656 L 26 19 A 1.0001 1.0001 0 0 0 24.984375 17.986328 A 1.0001 1.0001 0 0 0 24 19 L 24 22.585938 L 19.207031 17.792969 A 1.0001 1.0001 0 0 0 18.490234 17.490234 z"></path></svg>