<svg xmlns="http://www.w3.org/2000/svg" x="0px" y="0px"
width="96" height="96"
viewBox="0 0 24 24"
style=" fill:#000000;"><path d="M 4.1875 6 C 3.507813 6 2.96875 6.566406 2.96875 7.34375 C 2.96875 7.675781 3.070313 7.761719 3.125 7.875 C 3.28125 8.097656 4.21875 9.34375 4.21875 9.34375 C 4.21875 9.398438 4.28125 9.445313 4.28125 9.5 C 4.332031 9.722656 4.179688 9.875 3.96875 9.875 L 0 9.875 L 0 11 L 4.59375 11 C 5.273438 11 5.84375 10.433594 5.84375 9.65625 C 5.84375 9.324219 5.742188 9.238281 5.6875 9.125 L 4.6875 7.65625 C 4.6875 7.601563 4.65625 7.554688 4.65625 7.5 C 4.65625 7.277344 4.792969 7.125 5 7.125 L 7.71875 7.125 L 7.71875 11 L 9.09375 11 L 9.09375 7.125 L 11.3125 7.125 L 11.3125 6 Z M 12.6875 6 L 11.15625 11 L 12.46875 11 L 12.84375 9.875 L 14.8125 9.875 L 15.1875 11 L 16.5 11 L 14.875 6 Z M 17.59375 6 L 17.59375 11 L 19 11 L 19 9.125 C 19 9.125 20.195313 10.34375 20.71875 10.84375 C 20.769531 10.898438 20.917969 11 21.125 11 L 24 11 L 24 9.875 L 22.0625 9.875 C 21.851563 9.875 21.761719 9.765625 21.65625 9.65625 C 21.394531 9.324219 21.09375 9.0625 21.09375 9.0625 C 21.71875 8.894531 22.1875 8.285156 22.1875 7.5625 C 22.1875 6.671875 21.5 6 20.71875 6 Z M 13.78125 6.78125 L 14.40625 8.78125 L 13.15625 8.78125 Z M 19 7.125 L 20.34375 7.125 C 20.65625 7.125 20.9375 7.320313 20.9375 7.65625 C 20.9375 7.988281 20.65625 8.21875 20.34375 8.21875 L 19 8.21875 Z M 13.46875 13 L 13.46875 17.9375 L 14.90625 17.9375 L 14.90625 16.0625 C 14.90625 16.0625 16.097656 17.289063 16.625 17.78125 C 16.679688 17.835938 16.851563 17.9375 17.0625 17.9375 L 21.4375 17.9375 C 22.121094 17.9375 22.6875 17.449219 22.6875 16.625 C 22.6875 16.296875 22.585938 16.171875 22.53125 16.0625 L 21.46875 14.71875 C 21.46875 14.664063 21.40625 14.585938 21.40625 14.53125 C 21.40625 14.3125 21.59375 14.15625 21.75 14.15625 L 24 14.15625 L 24 13.0625 L 21 13.0625 C 20.316406 13.0625 19.75 13.605469 19.75 14.375 C 19.75 14.703125 19.851563 14.828125 19.90625 14.9375 C 20.0625 15.101563 21.0625 16.3125 21.0625 16.3125 C 21.0625 16.367188 21.09375 16.414063 21.09375 16.46875 C 21.09375 16.6875 20.9375 16.84375 20.78125 16.84375 L 18 16.84375 C 17.789063 16.84375 17.699219 16.734375 17.59375 16.625 C 17.332031 16.296875 17.0625 16.03125 17.0625 16.03125 C 17.695313 15.867188 18.15625 15.246094 18.15625 14.53125 C 18.15625 13.652344 17.476563 13 16.6875 13 Z M 0 13.0625 L 1.59375 18 L 2.46875 18 L 3.46875 14.96875 L 4.46875 18 L 5.375 18 L 6.9375 13.0625 L 5.59375 13.0625 L 4.90625 15.1875 L 4.21875 13.0625 L 2.75 13.0625 L 2 15.1875 L 1.3125 13.0625 Z M 8.46875 13.0625 L 6.9375 18 L 8.21875 18 L 8.5625 16.90625 L 10.5625 16.90625 L 10.9375 18 L 12.25 18 L 10.6875 13.0625 Z M 9.59375 13.8125 L 10.21875 15.8125 L 8.9375 15.8125 Z M 14.90625 14.15625 L 16.25 14.15625 C 16.566406 14.15625 16.84375 14.359375 16.84375 14.6875 C 16.84375 15.015625 16.566406 15.25 16.25 15.25 L 14.90625 15.25 Z"></path></svg>